HIERARCHY
ROOT Hips
{
 OFFSET 0.000000 0.000000 0.000000
 CHANNELS 6 Xposition Yposition Zposition Yrotation Xrotation Zrotation
 JOINT Chest
 {
  OFFSET 0.000000 10.265206 0.006595
  CHANNELS 3 Yrotation Xrotation Zrotation
  JOINT Chest2
  {
   OFFSET 0.000000 11.389044 -0.011980
   CHANNELS 3 Yrotation Xrotation Zrotation
   JOINT Chest3
   {
    OFFSET 0.000000 10.290982 0.000000
    CHANNELS 3 Yrotation Xrotation Zrotation
    JOINT Chest4
    {
     OFFSET 0.000000 10.290982 0.000000
     CHANNELS 3 Yrotation Xrotation Zrotation
     JOINT Neck
     {
      OFFSET 0.000000 14.367993 0.000000
      CHANNELS 3 Yrotation Xrotation Zrotation
      JOINT Head
      {
       OFFSET 0.000000 9.574020 -0.028490
       CHANNELS 3 Yrotation Xrotation Zrotation
       End Site
       {
        OFFSET 0.000000 18.400023 -0.014881
       }
      }
     }
     JOINT RightCollar
     {
      OFFSET -3.015571 8.009391 0.000000
      CHANNELS 3 Yrotation Xrotation Zrotation
      JOINT RightShoulder
      {
       OFFSET -13.867120 0.000000 0.000000
       CHANNELS 3 Yrotation Xrotation Zrotation
       JOINT RightElbow
       {
        OFFSET -29.171974 0.000000 0.000000
        CHANNELS 3 Yrotation Xrotation Zrotation
        JOINT RightWrist
        {
         OFFSET -24.013854 0.000000 0.006497
         CHANNELS 3 Yrotation Xrotation Zrotation
         End Site
         {
          OFFSET -18.051397 0.000000 0.000000
         }
        }
       }
      }
     }
     JOINT LeftCollar
     {
      OFFSET 3.015571 8.009391 0.000000
      CHANNELS 3 Yrotation Xrotation Zrotation
      JOINT LeftShoulder
      {
       OFFSET 13.867120 0.000000 0.000000
       CHANNELS 3 Yrotation Xrotation Zrotation
       JOINT LeftElbow
       {
        OFFSET 29.171974 0.000000 0.000000
        CHANNELS 3 Yrotation Xrotation Zrotation
        JOINT LeftWrist
        {
         OFFSET 24.013854 0.000000 0.006497
         CHANNELS 3 Yrotation Xrotation Zrotation
         End Site
         {
          OFFSET 18.051397 0.000000 0.000000
         }
        }
       }
      }
     }
    }
   }
  }
 }
 JOINT RightHip
 {
  OFFSET -8.283980 -0.032318 -0.003298
  CHANNELS 3 Yrotation Xrotation Zrotation
  JOINT RightKnee
  {
   OFFSET 0.000000 -43.567000 0.003120
   CHANNELS 3 Yrotation Xrotation Zrotation
   JOINT RightAnkle
   {
    OFFSET 0.000000 -42.556413 0.005276
    CHANNELS 3 Yrotation Xrotation Zrotation
    JOINT RightToe
    {
     OFFSET 0.000000 -7.926623 17.954935
     CHANNELS 3 Yrotation Xrotation Zrotation
     End Site
     {
      OFFSET 0.000000 -1.555762 6.841994
     }
    }
   }
  }
 }
 JOINT LeftHip
 {
  OFFSET 8.283980 -0.032318 -0.003298
  CHANNELS 3 Yrotation Xrotation Zrotation
  JOINT LeftKnee
  {
   OFFSET 0.000000 -43.567000 0.003120
   CHANNELS 3 Yrotation Xrotation Zrotation
   JOINT LeftAnkle
   {
    OFFSET 0.000000 -42.556413 0.005276
    CHANNELS 3 Yrotation Xrotation Zrotation
    JOINT LeftToe
    {
     OFFSET 0.000000 -7.926623 17.954935
     CHANNELS 3 Yrotation Xrotation Zrotation
     End Site
     {
      OFFSET 0.000000 -1.555762 6.841994
     }
    }
   }
  }
 }
}
MOTION
Frames: 11
Frame Time: 0.033333
0.000000 93.892266 0.000000 0.000000 -5.826342 0.000000 0.000000 11.116423 0.000000 0.000000 -5.290081 0.000000 0.000000 0.000000 0.000000 0.000000 0.000000 0.000000 0.000000 12.665069 0.000000 0.000000 0.575450 0.000000 0.000000 0.000000 0.000000 0.000000 0.000000 0.000000 2.337306 0.000000 0.000000 -2.337306 0.000000 0.000000 0.000000 0.000000 0.000000 0.000000 0.000000 0.000000 -2.337306 0.000000 0.000000 2.337306 0.000000 0.000000 0.000000 8.578828 0.000000 0.000000 1.905768 0.000000 0.000000 -4.658254 0.000000 0.000000 0.000000 0.000000 0.000000 8.578828 0.000000 0.000000 1.905768 0.000000 0.000000 -4.658254 0.000000 0.000000 0.000000 0.000000
-39.288082 96.866483 -29.941537 -99.782593 -6.809690 -2.495306 0.704987 4.957305 0.237188 0.456449 3.095007 0.011319 0.365036 2.476014 0.007079 0.273705 1.857016 0.003829 5.188168 17.177409 -1.908748 6.018102 -7.764565 -3.259370 2.650899 8.681555 8.544166 -0.147724 -16.837974 77.468747 6.810584 31.789220 -5.246863 0.382514 17.522897 -1.154536 -1.055848 9.864830 -10.266264 -10.084401 -14.600833 -70.809695 -12.963764 32.274769 0.667345 1.518272 11.318792 1.769965 -20.217159 11.529776 -5.341506 -11.340829 -0.532543 -0.510754 13.412362 2.448378 25.796519 -0.128529 0.234595 -0.042500 14.866811 10.173074 7.449407 7.017274 -0.393286 2.046230 -3.709277 -2.899821 -7.156091 -0.050007 -0.252947 -0.036218
-39.291854 96.866922 -29.909949 -99.791485 -6.807280 -2.493531 0.718621 4.961758 0.241222 0.462139 3.096076 0.011228 0.369587 2.476869 0.006981 0.277119 1.857657 0.003736 5.178327 17.185680 -1.894928 6.003689 -7.756581 -3.241912 2.636640 8.692110 8.556319 -0.123372 -16.834607 77.492062 6.761548 31.784660 -5.281493 0.366504 17.540872 -1.176238 -1.074623 9.874470 -10.285729 -10.066305 -14.620614 -70.810805 -12.984964 32.210153 0.653932 1.530693 11.300747 1.795396 -20.219221 11.516821 -5.357292 -11.367082 -0.528173 -0.510191 13.444891 2.455609 25.795100 -0.127284 0.231836 -0.040073 14.855489 10.197608 7.415238 6.968669 -0.436516 2.053106 -3.652698 -2.887257 -7.138363 -0.040834 -0.257275 -0.028050
-39.300433 96.865242 -29.871881 -99.784732 -6.817480 -2.486391 0.722624 4.953272 0.233267 0.464281 3.089705 0.010085 0.371306 2.471772 0.006061 0.278412 1.853834 0.003043 5.192824 17.211896 -1.887164 6.017995 -7.727307 -3.237167 2.635465 8.737491 8.560111 -0.158299 -16.843064 77.530913 6.653201 31.836054 -5.339710 0.397346 17.535414 -1.143287 -1.055727 9.900628 -10.301104 -10.073777 -14.636808 -70.803976 -12.957978 32.195868 0.676873 1.512734 11.301240 1.755375 -20.225524 11.499784 -5.369424 -11.375674 -0.500061 -0.543862 13.441005 2.446341 25.791886 -0.123864 0.233291 -0.028164 14.817610 10.208912 7.384512 6.947182 -0.418152 2.042189 -3.604438 -2.914902 -7.098685 -0.050422 -0.251170 -0.029724
-39.315603 96.862974 -29.828143 -99.758783 -6.826740 -2.498085 0.730844 4.951961 0.234095 0.467310 3.089325 0.014912 0.373708 2.471472 0.009909 0.280197 1.853611 0.005919 5.189227 17.207636 -1.891692 6.015121 -7.732022 -3.241168 2.606828 8.758808 8.579753 -0.130190 -16.843227 77.504172 6.553947 31.798248 -5.361466 0.364642 17.565129 -1.180625 -1.065268 9.937013 -10.295556 -10.084982 -14.688092 -70.789320 -12.986263 32.204935 0.640762 1.498852 11.282672 1.716298 -20.234418 11.523588 -5.374313 -11.397787 -0.535932 -0.557201 13.431401 2.479751 25.790678 -0.113383 0.224349 -0.017480 14.735727 10.234128 7.342696 7.010349 -0.424078 2.067000 -3.600325 -2.929140 -7.079082 -0.059382 -0.254609 -0.030271
-39.326938 96.861682 -29.781914 -99.753108 -6.838751 -2.489307 0.718679 4.950526 0.243411 0.461580 3.091729 0.026168 0.369076 2.473401 0.018936 0.276687 1.855063 0.012705 5.203919 17.203555 -1.929650 6.041111 -7.734274 -3.286049 2.633971 8.751077 8.532882 -0.101230 -16.799889 77.483675 6.426974 31.762393 -5.447436 0.387526 17.564383 -1.174214 -1.031939 9.922682 -10.343341 -10.107605 -14.676570 -70.808179 -12.982537 32.183977 0.649049 1.491553 11.309340 1.720608 -20.250317 11.520142 -5.409585 -11.399268 -0.526400 -0.566360 13.409340 2.479767 25.793541 -0.106445 0.223598 -0.015661 14.674419 10.274381 7.290775 7.043346 -0.448398 2.077385 -3.582274 -2.935176 -7.059891 -0.063442 -0.253855 -0.026851
-39.323795 96.856504 -29.743776 -99.751442 -6.842079 -2.492981 0.727634 4.952498 0.236799 0.469341 3.094913 0.021146 0.375305 2.475946 0.014883 0.281374 1.856970 0.009639 5.196971 17.197898 -1.921584 6.031290 -7.741166 -3.275538 2.656247 8.720937 8.555990 -0.117841 -16.772642 77.456375 6.304602 31.712253 -5.514383 0.365626 17.565092 -1.205095 -1.077713 9.911707 -10.338898 -10.080362 -14.714056 -70.788173 -12.964929 32.185411 0.640534 1.462067 11.350715 1.729121 -20.292992 11.489194 -5.416959 -11.382599 -0.480279 -0.593897 13.458644 2.437590 25.777884 -0.106207 0.228645 -0.009359 14.642874 10.277171 7.276990 7.052936 -0.438901 2.061986 -3.576909 -2.959295 -7.031005 -0.060228 -0.246213 -0.026263
-39.324297 96.851610 -29.704604 -99.742147 -6.855237 -2.509944 0.740229 4.956944 0.229980 0.477450 3.096583 0.017143 0.381808 2.477279 0.011646 0.286264 1.857968 0.007184 5.183946 17.194926 -1.917374 6.015714 -7.745336 -3.267688 2.624714 8.713305 8.584325 -0.178650 -16.767898 77.453765 6.230952 31.743237 -5.566629 0.364173 17.576298 -1.197669 -1.098810 9.905833 -10.316851 -10.083958 -14.735366 -70.784604 -12.935911 32.204886 0.667920 1.463109 11.371497 1.686993 -20.282949 11.510820 -5.418876 -11.430297 -0.497804 -0.595088 13.504576 2.428497 25.755888 -0.106538 0.235302 -0.000679 14.617795 10.277868 7.272299 7.037683 -0.409125 2.039766 -3.550435 -2.998681 -6.976636 -0.064154 -0.238565 -0.032435
-39.336637 96.849145 -29.653489 -99.771541 -6.877197 -2.519771 0.720705 4.953475 0.236762 0.466135 3.093154 0.020773 0.372742 2.474538 0.014600 0.279454 1.855913 0.009438 5.206926 17.198452 -1.940909 6.047296 -7.739281 -3.299020 2.670296 8.740842 8.552523 -0.224333 -16.775018 77.467282 6.138898 31.713314 -5.650923 0.382008 17.618930 -1.196056 -1.055405 9.902912 -10.334838 -10.048281 -14.719966 -70.808773 -12.911903 32.205001 0.699869 1.426500 11.364328 1.662323 -20.278635 11.509306 -5.441227 -11.418241 -0.464359 -0.607134 13.507890 2.400951 25.739140 -0.110632 0.240765 0.004518 14.582708 10.296387 7.243904 7.036523 -0.364453 2.043298 -3.492497 -3.054844 -6.928555 -0.069982 -0.238489 -0.039586
-39.349904 96.845943 -29.590188 -99.800038 -6.869638 -2.505572 0.712809 4.957696 0.234804 0.464936 3.098112 0.021515 0.371779 2.478506 0.015196 0.278729 1.858889 0.009886 5.205906 17.164397 -1.947756 6.047704 -7.776372 -3.306157 2.676228 8.703784 8.528414 -0.269982 -16.756710 77.424138 6.132287 31.709499 -5.669293 0.399253 17.613835 -1.189905 -1.072031 9.853296 -10.358286 -10.021091 -14.710008 -70.826864 -12.877874 32.198148 0.749086 1.418464 11.333669 1.621725 -20.287385 11.472540 -5.495911 -11.373336 -0.436095 -0.596130 13.509550 2.389022 25.738164 -0.112664 0.236025 -0.004074 14.551582 10.303011 7.168510 7.037566 -0.350207 2.056807 -3.459646 -3.099782 -6.868629 -0.066582 -0.234401 -0.046909
-39.358250 96.841996 -29.533531 -99.861880 -6.865682 -2.513042 0.708911 4.957898 0.231997 0.460849 3.098273 0.016280 0.368533 2.478630 0.011026 0.276312 1.858980 0.006773 5.227075 17.142582 -1.928107 6.066115 -7.799693 -3.290139 2.719692 8.682873 8.550599 -0.245644 -16.754559 77.408306 6.077950 31.711197 -5.749579 0.401725 17.581118 -1.235734 -1.049053 9.856776 -10.371222 -10.005092 -14.713353 -70.770510 -12.904621 32.143830 0.716822 1.405308 11.328599 1.600094 -20.265369 11.432687 -5.516766 -11.318681 -0.402276 -0.604834 13.483533 2.386029 25.730946 -0.112011 0.234268 -0.001189 14.595603 10.281060 7.152384 6.988105 -0.292505 2.038766 -3.427446 -3.164488 -6.803172 -0.056130 -0.233031 -0.047213
